<?xml version="1.0" encoding="UTF-8"?><svg id="Layer_1" xmlns="http://www.w3.org/2000/svg" viewBox="0 0 773.79 846"><defs><style>.cls-1{font-family:MyriadPro-Regular, 'Myriad Pro';font-size:592.27px;}.cls-2{fill:#fff;}</style></defs><g><path class="cls-2" d="M417,796c-79.06,0-153.4-30.79-209.3-86.7-55.91-55.91-86.7-130.24-86.7-209.3s30.79-153.4,86.7-209.3c55.91-55.91,130.24-86.7,209.3-86.7s153.4,30.79,209.3,86.7c55.91,55.91,86.7,130.24,86.7,209.3s-30.79,153.4-86.7,209.3-130.24,86.7-209.3,86.7Z"/><path d="M417,221c37.68,0,74.21,7.37,108.59,21.91,33.22,14.05,63.06,34.17,88.69,59.81,25.63,25.63,45.76,55.47,59.81,88.69,14.54,34.37,21.91,70.91,21.91,108.59s-7.37,74.21-21.91,108.59c-14.05,33.22-34.17,63.06-59.81,88.69s-55.47,45.76-88.69,59.81c-34.37,14.54-70.91,21.91-108.59,21.91s-74.21-7.37-108.59-21.91c-33.22-14.05-63.06-34.17-88.69-59.81-25.63-25.63-45.76-55.47-59.81-88.69-14.54-34.37-21.91-70.91-21.91-108.59s7.37-74.21,21.91-108.59c14.05-33.22,34.17-63.06,59.81-88.69,25.63-25.63,55.47-45.76,88.69-59.81,34.37-14.54,70.91-21.91,108.59-21.91m0-34c-172.87,0-313,140.13-313,313s140.13,313,313,313,313-140.13,313-313S589.87,187,417,187h0Z"/></g><text class="cls-1" transform="translate(312.76 697.93)"><tspan x="0" y="0">?</tspan></text></svg>