<?xml version="1.0" encoding="UTF-8"?><svg id="Objects" xmlns="http://www.w3.org/2000/svg" viewBox="0 0 1710.07 1710.07"><path d="M855.03,879.06c-173.97,0-315.5-141.53-315.5-315.5s141.53-315.5,315.5-315.5,315.5,141.53,315.5,315.5-141.53,315.5-315.5,315.5Zm0-582.95c-147.47,0-267.45,119.98-267.45,267.45s119.98,267.45,267.45,267.45,267.45-119.98,267.45-267.45-119.98-267.45-267.45-267.45Z"/><path d="M855.03,1710.07C383.57,1710.07,0,1326.5,0,855.03S383.57,0,855.03,0s855.03,383.57,855.03,855.03-383.57,855.03-855.03,855.03Zm0-1662.02C410.06,48.05,48.05,410.06,48.05,855.03s362.01,806.99,806.99,806.99,806.99-362.01,806.99-806.99S1300.01,48.05,855.03,48.05Z"/><path d="M855.03,1585.35c-151.27,0-296.42-45.86-419.76-132.61-31.08-21.86-60.69-46.36-88.01-72.81-4.68-4.52-7.31-10.75-7.31-17.26v-50.16c0-99.25,53.88-199,147.83-273.68,97.79-77.73,228.22-120.54,367.25-120.54s272.98,42.83,369.89,120.61c92.29,74.07,145.23,173.8,145.23,273.61v50.12c0,6.51-2.64,12.74-7.32,17.27-27.42,26.51-57.05,51.02-88.07,72.84-123.27,86.76-268.41,132.61-419.72,132.61Zm-467.03-232.97c23.47,22.06,48.63,42.56,74.92,61.05,115.2,81.03,250.79,123.87,392.11,123.87s276.93-42.83,392.07-123.86c26.25-18.46,51.44-38.99,75-61.1v-39.83c0-85.16-46.38-171.23-127.25-236.14-88.42-70.96-209.1-110.04-339.82-110.04-279.37,0-467.03,179-467.03,346.18v39.87Zm958.12,10.25h0Z"/></svg>